<svg xmlns="http://www.w3.org/2000/svg" xmlns:xlink="http://www.w3.org/1999/xlink" width="500" zoomAndPan="magnify" viewBox="0 0 375 374.999991" height="500" preserveAspectRatio="xMidYMid meet" version="1.0"><defs><g/><clipPath id="f7aa09fedc"><rect x="0" width="189" y="0" height="36"/></clipPath><clipPath id="f6f7ef2473"><path d="M 24.605469 159 L 90 159 L 90 187.144531 L 24.605469 187.144531 Z M 24.605469 159 " clip-rule="nonzero"/></clipPath><clipPath id="559b055679"><path d="M 81 156.394531 L 92.855469 156.394531 L 92.855469 168 L 81 168 Z M 81 156.394531 " clip-rule="nonzero"/></clipPath></defs><g transform="matrix(1, 0, 0, 1, 98, 154)"><g clip-path="url(#f7aa09fedc)"><g fill="#223d41" fill-opacity="1"><g transform="translate(0.49806, 26.502051)"><g><path d="M 1.78125 0 L 1.78125 -18.390625 L 8.59375 -18.390625 C 10.0625 -18.390625 11.273438 -18.144531 12.234375 -17.65625 C 13.203125 -17.164062 13.921875 -16.488281 14.390625 -15.625 C 14.867188 -14.769531 15.109375 -13.804688 15.109375 -12.734375 C 15.109375 -11.722656 14.878906 -10.789062 14.421875 -9.9375 C 13.960938 -9.09375 13.25 -8.410156 12.28125 -7.890625 C 11.320312 -7.378906 10.09375 -7.125 8.59375 -7.125 L 5.140625 -7.125 L 5.140625 0 Z M 5.140625 -9.84375 L 8.375 -9.84375 C 9.550781 -9.84375 10.394531 -10.101562 10.90625 -10.625 C 11.425781 -11.144531 11.6875 -11.847656 11.6875 -12.734375 C 11.6875 -13.648438 11.425781 -14.363281 10.90625 -14.875 C 10.394531 -15.394531 9.550781 -15.65625 8.375 -15.65625 L 5.140625 -15.65625 Z M 5.140625 -9.84375 "/></g></g></g><g fill="#223d41" fill-opacity="1"><g transform="translate(15.858997, 26.502051)"><g><path d="M 1.703125 0 L 1.703125 -18.90625 L 5.0625 -18.90625 L 5.0625 0 Z M 1.703125 0 "/></g></g></g><g fill="#223d41" fill-opacity="1"><g transform="translate(22.082062, 26.502051)"><g><path d="M 6.203125 0.3125 C 5.078125 0.3125 4.15625 0.132812 3.4375 -0.21875 C 2.71875 -0.582031 2.179688 -1.0625 1.828125 -1.65625 C 1.484375 -2.25 1.3125 -2.90625 1.3125 -3.625 C 1.3125 -4.832031 1.785156 -5.8125 2.734375 -6.5625 C 3.679688 -7.320312 5.097656 -7.703125 6.984375 -7.703125 L 10.296875 -7.703125 L 10.296875 -8.015625 C 10.296875 -8.898438 10.039062 -9.550781 9.53125 -9.96875 C 9.019531 -10.394531 8.390625 -10.609375 7.640625 -10.609375 C 6.960938 -10.609375 6.367188 -10.445312 5.859375 -10.125 C 5.347656 -9.800781 5.03125 -9.320312 4.90625 -8.6875 L 1.625 -8.6875 C 1.71875 -9.632812 2.039062 -10.457031 2.59375 -11.15625 C 3.144531 -11.863281 3.859375 -12.40625 4.734375 -12.78125 C 5.609375 -13.15625 6.585938 -13.34375 7.671875 -13.34375 C 9.523438 -13.34375 10.984375 -12.878906 12.046875 -11.953125 C 13.117188 -11.023438 13.65625 -9.710938 13.65625 -8.015625 L 13.65625 0 L 10.796875 0 L 10.484375 -2.09375 C 10.097656 -1.394531 9.554688 -0.816406 8.859375 -0.359375 C 8.171875 0.0859375 7.285156 0.3125 6.203125 0.3125 Z M 6.953125 -2.3125 C 7.921875 -2.3125 8.671875 -2.625 9.203125 -3.25 C 9.734375 -3.882812 10.070312 -4.664062 10.21875 -5.59375 L 7.359375 -5.59375 C 6.460938 -5.59375 5.820312 -5.429688 5.4375 -5.109375 C 5.050781 -4.785156 4.859375 -4.382812 4.859375 -3.90625 C 4.859375 -3.40625 5.050781 -3.015625 5.4375 -2.734375 C 5.820312 -2.453125 6.328125 -2.3125 6.953125 -2.3125 Z M 6.953125 -2.3125 "/></g></g></g><g fill="#223d41" fill-opacity="1"><g transform="translate(36.655244, 26.502051)"><g><path d="M 1.703125 0 L 1.703125 -13.03125 L 4.671875 -13.03125 L 4.9375 -10.828125 C 5.34375 -11.597656 5.925781 -12.207031 6.6875 -12.65625 C 7.445312 -13.113281 8.34375 -13.34375 9.375 -13.34375 C 10.988281 -13.34375 12.238281 -12.832031 13.125 -11.8125 C 14.019531 -10.800781 14.46875 -9.316406 14.46875 -7.359375 L 14.46875 0 L 11.109375 0 L 11.109375 -7.046875 C 11.109375 -8.160156 10.878906 -9.015625 10.421875 -9.609375 C 9.972656 -10.203125 9.265625 -10.5 8.296875 -10.5 C 7.347656 -10.5 6.570312 -10.164062 5.96875 -9.5 C 5.363281 -8.84375 5.0625 -7.914062 5.0625 -6.71875 L 5.0625 0 Z M 1.703125 0 "/></g></g></g><g fill="#223d41" fill-opacity="1"><g transform="translate(52.042436, 26.502051)"><g><path d="M 10.40625 0.3125 C 8.5625 0.3125 6.953125 -0.0859375 5.578125 -0.890625 C 4.203125 -1.691406 3.125 -2.804688 2.34375 -4.234375 C 1.570312 -5.660156 1.1875 -7.3125 1.1875 -9.1875 C 1.1875 -11.0625 1.570312 -12.710938 2.34375 -14.140625 C 3.125 -15.566406 4.203125 -16.679688 5.578125 -17.484375 C 6.953125 -18.296875 8.5625 -18.703125 10.40625 -18.703125 C 12.21875 -18.703125 13.816406 -18.296875 15.203125 -17.484375 C 16.585938 -16.679688 17.664062 -15.566406 18.4375 -14.140625 C 19.207031 -12.710938 19.59375 -11.0625 19.59375 -9.1875 C 19.59375 -7.3125 19.207031 -5.660156 18.4375 -4.234375 C 17.664062 -2.804688 16.585938 -1.691406 15.203125 -0.890625 C 13.816406 -0.0859375 12.21875 0.3125 10.40625 0.3125 Z M 10.40625 -2.703125 C 12.15625 -2.703125 13.550781 -3.28125 14.59375 -4.4375 C 15.632812 -5.59375 16.15625 -7.175781 16.15625 -9.1875 C 16.15625 -11.207031 15.632812 -12.796875 14.59375 -13.953125 C 13.550781 -15.109375 12.15625 -15.6875 10.40625 -15.6875 C 8.65625 -15.6875 7.253906 -15.109375 6.203125 -13.953125 C 5.148438 -12.796875 4.625 -11.207031 4.625 -9.1875 C 4.625 -7.175781 5.148438 -5.59375 6.203125 -4.4375 C 7.253906 -3.28125 8.65625 -2.703125 10.40625 -2.703125 Z M 10.40625 -2.703125 "/></g></g></g><g fill="#223d41" fill-opacity="1"><g transform="translate(72.234883, 26.502051)"><g><path d="M 6.59375 0.3125 C 4.96875 0.3125 3.710938 -0.191406 2.828125 -1.203125 C 1.941406 -2.222656 1.5 -3.710938 1.5 -5.671875 L 1.5 -13.03125 L 4.828125 -13.03125 L 4.828125 -5.984375 C 4.828125 -4.867188 5.054688 -4.007812 5.515625 -3.40625 C 5.972656 -2.8125 6.691406 -2.515625 7.671875 -2.515625 C 8.597656 -2.515625 9.363281 -2.847656 9.96875 -3.515625 C 10.570312 -4.179688 10.875 -5.109375 10.875 -6.296875 L 10.875 -13.03125 L 14.234375 -13.03125 L 14.234375 0 L 11.265625 0 L 11 -2.203125 C 10.601562 -1.429688 10.019531 -0.816406 9.25 -0.359375 C 8.488281 0.0859375 7.601562 0.3125 6.59375 0.3125 Z M 6.59375 0.3125 "/></g></g></g><g fill="#223d41" fill-opacity="1"><g transform="translate(87.622074, 26.502051)"><g><path d="M 1.703125 0 L 1.703125 -13.03125 L 4.703125 -13.03125 L 5.015625 -10.578125 C 5.484375 -11.421875 6.125 -12.09375 6.9375 -12.59375 C 7.757812 -13.09375 8.722656 -13.34375 9.828125 -13.34375 L 9.828125 -9.796875 L 8.875 -9.796875 C 8.144531 -9.796875 7.488281 -9.679688 6.90625 -9.453125 C 6.332031 -9.222656 5.878906 -8.828125 5.546875 -8.265625 C 5.222656 -7.710938 5.0625 -6.9375 5.0625 -5.9375 L 5.0625 0 Z M 1.703125 0 "/></g></g></g><g fill="#223d41" fill-opacity="1"><g transform="translate(97.442518, 26.502051)"><g><path d="M 9.828125 0.3125 C 8.085938 0.3125 6.566406 -0.078125 5.265625 -0.859375 C 3.972656 -1.648438 2.96875 -2.75 2.25 -4.15625 C 1.539062 -5.570312 1.1875 -7.21875 1.1875 -9.09375 C 1.1875 -10.976562 1.554688 -12.644531 2.296875 -14.09375 C 3.046875 -15.539062 4.101562 -16.671875 5.46875 -17.484375 C 6.84375 -18.296875 8.476562 -18.703125 10.375 -18.703125 C 12.53125 -18.703125 14.316406 -18.1875 15.734375 -17.15625 C 17.148438 -16.125 18.066406 -14.695312 18.484375 -12.875 L 14.734375 -12.875 C 14.453125 -13.726562 13.941406 -14.394531 13.203125 -14.875 C 12.472656 -15.363281 11.53125 -15.609375 10.375 -15.609375 C 8.53125 -15.609375 7.109375 -15.023438 6.109375 -13.859375 C 5.117188 -12.691406 4.625 -11.09375 4.625 -9.0625 C 4.625 -7.03125 5.117188 -5.457031 6.109375 -4.34375 C 7.097656 -3.226562 8.441406 -2.671875 10.140625 -2.671875 C 11.804688 -2.671875 13.0625 -3.125 13.90625 -4.03125 C 14.757812 -4.9375 15.269531 -6.125 15.4375 -7.59375 L 10.796875 -7.59375 L 10.796875 -10.109375 L 18.828125 -10.109375 L 18.828125 0 L 15.734375 0 L 15.46875 -2.421875 C 14.875 -1.546875 14.128906 -0.867188 13.234375 -0.390625 C 12.335938 0.078125 11.203125 0.3125 9.828125 0.3125 Z M 9.828125 0.3125 "/></g></g></g><g fill="#223d41" fill-opacity="1"><g transform="translate(117.162316, 26.502051)"><g><path d="M 1.703125 0 L 1.703125 -13.03125 L 4.703125 -13.03125 L 5.015625 -10.578125 C 5.484375 -11.421875 6.125 -12.09375 6.9375 -12.59375 C 7.757812 -13.09375 8.722656 -13.34375 9.828125 -13.34375 L 9.828125 -9.796875 L 8.875 -9.796875 C 8.144531 -9.796875 7.488281 -9.679688 6.90625 -9.453125 C 6.332031 -9.222656 5.878906 -8.828125 5.546875 -8.265625 C 5.222656 -7.710938 5.0625 -6.9375 5.0625 -5.9375 L 5.0625 0 Z M 1.703125 0 "/></g></g></g><g fill="#223d41" fill-opacity="1"><g transform="translate(126.98276, 26.502051)"><g><path d="M 7.953125 0.3125 C 6.691406 0.3125 5.554688 0.0234375 4.546875 -0.546875 C 3.546875 -1.128906 2.75 -1.929688 2.15625 -2.953125 C 1.570312 -3.972656 1.28125 -5.160156 1.28125 -6.515625 C 1.28125 -7.859375 1.578125 -9.039062 2.171875 -10.0625 C 2.773438 -11.09375 3.578125 -11.894531 4.578125 -12.46875 C 5.585938 -13.050781 6.722656 -13.34375 7.984375 -13.34375 C 9.222656 -13.34375 10.347656 -13.050781 11.359375 -12.46875 C 12.367188 -11.894531 13.164062 -11.09375 13.75 -10.0625 C 14.332031 -9.039062 14.625 -7.859375 14.625 -6.515625 C 14.625 -5.160156 14.332031 -3.972656 13.75 -2.953125 C 13.164062 -1.929688 12.363281 -1.128906 11.34375 -0.546875 C 10.332031 0.0234375 9.203125 0.3125 7.953125 0.3125 Z M 7.953125 -2.59375 C 8.828125 -2.59375 9.585938 -2.921875 10.234375 -3.578125 C 10.890625 -4.234375 11.21875 -5.210938 11.21875 -6.515625 C 11.21875 -7.804688 10.890625 -8.78125 10.234375 -9.4375 C 9.585938 -10.09375 8.835938 -10.421875 7.984375 -10.421875 C 7.085938 -10.421875 6.320312 -10.09375 5.6875 -9.4375 C 5.050781 -8.78125 4.734375 -7.804688 4.734375 -6.515625 C 4.734375 -5.210938 5.050781 -4.234375 5.6875 -3.578125 C 6.320312 -2.921875 7.078125 -2.59375 7.953125 -2.59375 Z M 7.953125 -2.59375 "/></g></g></g><g fill="#223d41" fill-opacity="1"><g transform="translate(142.317433, 26.502051)"><g><path d="M 4.25 0 L 0.453125 -13.03125 L 3.78125 -13.03125 L 6.046875 -3.65625 L 8.671875 -13.03125 L 12.390625 -13.03125 L 15.03125 -3.65625 L 17.3125 -13.03125 L 20.640625 -13.03125 L 16.8125 0 L 13.3125 0 L 10.53125 -9.75 L 7.75 0 Z M 4.25 0 "/></g></g></g><g fill="#223d41" fill-opacity="1"><g transform="translate(162.798715, 26.502051)"><g><path d="M 7.515625 0 C 6.148438 0 5.054688 -0.332031 4.234375 -1 C 3.410156 -1.664062 3 -2.847656 3 -4.546875 L 3 -10.21875 L 0.765625 -10.21875 L 0.765625 -13.03125 L 3 -13.03125 L 3.390625 -16.515625 L 6.359375 -16.515625 L 6.359375 -13.03125 L 9.875 -13.03125 L 9.875 -10.21875 L 6.359375 -10.21875 L 6.359375 -4.515625 C 6.359375 -3.890625 6.492188 -3.457031 6.765625 -3.21875 C 7.035156 -2.976562 7.503906 -2.859375 8.171875 -2.859375 L 9.796875 -2.859375 L 9.796875 0 Z M 7.515625 0 "/></g></g></g><g fill="#223d41" fill-opacity="1"><g transform="translate(173.275615, 26.502051)"><g><path d="M 1.703125 0 L 1.703125 -18.90625 L 5.0625 -18.90625 L 5.0625 -11.03125 C 5.5 -11.75 6.085938 -12.3125 6.828125 -12.71875 C 7.578125 -13.132812 8.4375 -13.34375 9.40625 -13.34375 C 11.007812 -13.34375 12.253906 -12.832031 13.140625 -11.8125 C 14.023438 -10.800781 14.46875 -9.316406 14.46875 -7.359375 L 14.46875 0 L 11.140625 0 L 11.140625 -7.046875 C 11.140625 -8.160156 10.914062 -9.015625 10.46875 -9.609375 C 10.019531 -10.203125 9.316406 -10.5 8.359375 -10.5 C 7.410156 -10.5 6.625 -10.164062 6 -9.5 C 5.375 -8.84375 5.0625 -7.914062 5.0625 -6.71875 L 5.0625 0 Z M 1.703125 0 "/></g></g></g></g></g><path stroke-linecap="butt" transform="matrix(0, 0.75, -0.75, 0, 99.198732, 156.396259)" fill="none" stroke-linejoin="miter" d="M -0.00230304 1.999352 L 41.476866 1.999352 " stroke="#000000" stroke-width="4" stroke-opacity="1" stroke-miterlimit="4"/><g clip-path="url(#f6f7ef2473)"><path fill="#000000" d="M 50.523438 187.496094 L 36.472656 173.445312 L 27.328125 182.59375 L 24.617188 179.882812 L 36.472656 168.023438 L 50.523438 182.074219 L 59.882812 172.714844 L 66.71875 179.554688 L 86.5 159.773438 L 89.210938 162.484375 L 66.71875 184.976562 L 59.882812 178.140625 Z M 50.523438 187.496094 " fill-opacity="1" fill-rule="nonzero"/></g><g clip-path="url(#559b055679)"><path fill="#000000" d="M 92.589844 156.394531 L 90.4375 167.890625 L 81.09375 158.546875 Z M 92.589844 156.394531 " fill-opacity="1" fill-rule="nonzero"/></g></svg>