<svg xmlns="http://www.w3.org/2000/svg" xmlns:xlink="http://www.w3.org/1999/xlink" width="500" zoomAndPan="magnify" viewBox="0 0 375 374.999991" height="500" preserveAspectRatio="xMidYMid meet" version="1.0"><defs><g/><clipPath id="9d31bb6a4c"><path d="M 116.859375 115 L 260 115 L 260 176.390625 L 116.859375 176.390625 Z M 116.859375 115 " clip-rule="nonzero"/></clipPath><clipPath id="b8437b7958"><path d="M 241 108.140625 L 266.859375 108.140625 L 266.859375 134 L 241 134 Z M 241 108.140625 " clip-rule="nonzero"/></clipPath></defs><g fill="#223d41" fill-opacity="1"><g transform="translate(55.118194, 218.629615)"><g><path d="M 2.5 0 L 2.5 -25.796875 L 12.046875 -25.796875 C 14.109375 -25.796875 15.816406 -25.453125 17.171875 -24.765625 C 18.523438 -24.078125 19.53125 -23.128906 20.1875 -21.921875 C 20.851562 -20.710938 21.1875 -19.363281 21.1875 -17.875 C 21.1875 -16.445312 20.863281 -15.132812 20.21875 -13.9375 C 19.582031 -12.75 18.585938 -11.789062 17.234375 -11.0625 C 15.890625 -10.34375 14.160156 -9.984375 12.046875 -9.984375 L 7.21875 -9.984375 L 7.21875 0 Z M 7.21875 -13.8125 L 11.75 -13.8125 C 13.394531 -13.8125 14.578125 -14.171875 15.296875 -14.890625 C 16.023438 -15.617188 16.390625 -16.613281 16.390625 -17.875 C 16.390625 -19.144531 16.023438 -20.140625 15.296875 -20.859375 C 14.578125 -21.585938 13.394531 -21.953125 11.75 -21.953125 L 7.21875 -21.953125 Z M 7.21875 -13.8125 "/></g></g></g><g fill="#223d41" fill-opacity="1"><g transform="translate(76.664785, 218.629615)"><g><path d="M 2.390625 0 L 2.390625 -26.53125 L 7.109375 -26.53125 L 7.109375 0 Z M 2.390625 0 "/></g></g></g><g fill="#223d41" fill-opacity="1"><g transform="translate(85.393799, 218.629615)"><g><path d="M 8.6875 0.4375 C 7.125 0.4375 5.835938 0.1875 4.828125 -0.3125 C 3.816406 -0.8125 3.066406 -1.476562 2.578125 -2.3125 C 2.085938 -3.15625 1.84375 -4.078125 1.84375 -5.078125 C 1.84375 -6.773438 2.503906 -8.148438 3.828125 -9.203125 C 5.160156 -10.265625 7.148438 -10.796875 9.796875 -10.796875 L 14.4375 -10.796875 L 14.4375 -11.234375 C 14.4375 -12.484375 14.082031 -13.40625 13.375 -14 C 12.664062 -14.59375 11.78125 -14.890625 10.71875 -14.890625 C 9.757812 -14.890625 8.921875 -14.660156 8.203125 -14.203125 C 7.492188 -13.742188 7.054688 -13.070312 6.890625 -12.1875 L 2.28125 -12.1875 C 2.40625 -13.519531 2.851562 -14.675781 3.625 -15.65625 C 4.40625 -16.632812 5.40625 -17.390625 6.625 -17.921875 C 7.851562 -18.453125 9.234375 -18.71875 10.765625 -18.71875 C 13.359375 -18.71875 15.40625 -18.066406 16.90625 -16.765625 C 18.40625 -15.460938 19.15625 -13.617188 19.15625 -11.234375 L 19.15625 0 L 15.140625 0 L 14.703125 -2.953125 C 14.160156 -1.960938 13.40625 -1.148438 12.4375 -0.515625 C 11.46875 0.117188 10.21875 0.4375 8.6875 0.4375 Z M 9.765625 -3.25 C 11.117188 -3.25 12.164062 -3.6875 12.90625 -4.5625 C 13.65625 -5.445312 14.128906 -6.539062 14.328125 -7.84375 L 10.3125 -7.84375 C 9.0625 -7.84375 8.164062 -7.613281 7.625 -7.15625 C 7.082031 -6.707031 6.8125 -6.148438 6.8125 -5.484375 C 6.8125 -4.773438 7.082031 -4.222656 7.625 -3.828125 C 8.164062 -3.441406 8.878906 -3.25 9.765625 -3.25 Z M 9.765625 -3.25 "/></g></g></g><g fill="#223d41" fill-opacity="1"><g transform="translate(105.835418, 218.629615)"><g><path d="M 2.390625 0 L 2.390625 -18.28125 L 6.5625 -18.28125 L 6.921875 -15.171875 C 7.492188 -16.253906 8.3125 -17.113281 9.375 -17.75 C 10.445312 -18.394531 11.707031 -18.71875 13.15625 -18.71875 C 15.414062 -18.71875 17.171875 -18.003906 18.421875 -16.578125 C 19.671875 -15.148438 20.296875 -13.0625 20.296875 -10.3125 L 20.296875 0 L 15.578125 0 L 15.578125 -9.875 C 15.578125 -11.445312 15.257812 -12.648438 14.625 -13.484375 C 13.988281 -14.316406 12.992188 -14.734375 11.640625 -14.734375 C 10.316406 -14.734375 9.226562 -14.265625 8.375 -13.328125 C 7.53125 -12.398438 7.109375 -11.101562 7.109375 -9.4375 L 7.109375 0 Z M 2.390625 0 "/></g></g></g><g fill="#223d41" fill-opacity="1"><g transform="translate(127.418836, 218.629615)"><g><path d="M 14.59375 0.4375 C 12.007812 0.4375 9.753906 -0.125 7.828125 -1.25 C 5.898438 -2.382812 4.390625 -3.953125 3.296875 -5.953125 C 2.203125 -7.953125 1.65625 -10.265625 1.65625 -12.890625 C 1.65625 -15.523438 2.203125 -17.84375 3.296875 -19.84375 C 4.390625 -21.84375 5.898438 -23.40625 7.828125 -24.53125 C 9.753906 -25.664062 12.007812 -26.234375 14.59375 -26.234375 C 17.144531 -26.234375 19.390625 -25.664062 21.328125 -24.53125 C 23.273438 -23.40625 24.785156 -21.84375 25.859375 -19.84375 C 26.941406 -17.84375 27.484375 -15.523438 27.484375 -12.890625 C 27.484375 -10.265625 26.941406 -7.953125 25.859375 -5.953125 C 24.785156 -3.953125 23.273438 -2.382812 21.328125 -1.25 C 19.390625 -0.125 17.144531 0.4375 14.59375 0.4375 Z M 14.59375 -3.796875 C 17.050781 -3.796875 19.007812 -4.601562 20.46875 -6.21875 C 21.925781 -7.84375 22.65625 -10.066406 22.65625 -12.890625 C 22.65625 -15.710938 21.925781 -17.9375 20.46875 -19.5625 C 19.007812 -21.1875 17.050781 -22 14.59375 -22 C 12.132812 -22 10.164062 -21.1875 8.6875 -19.5625 C 7.21875 -17.9375 6.484375 -15.710938 6.484375 -12.890625 C 6.484375 -10.066406 7.21875 -7.84375 8.6875 -6.21875 C 10.164062 -4.601562 12.132812 -3.796875 14.59375 -3.796875 Z M 14.59375 -3.796875 "/></g></g></g><g fill="#223d41" fill-opacity="1"><g transform="translate(155.742527, 218.629615)"><g><path d="M 9.25 0.4375 C 6.96875 0.4375 5.203125 -0.269531 3.953125 -1.6875 C 2.710938 -3.113281 2.09375 -5.203125 2.09375 -7.953125 L 2.09375 -18.28125 L 6.78125 -18.28125 L 6.78125 -8.40625 C 6.78125 -6.832031 7.097656 -5.625 7.734375 -4.78125 C 8.367188 -3.945312 9.378906 -3.53125 10.765625 -3.53125 C 12.066406 -3.53125 13.140625 -4 13.984375 -4.9375 C 14.828125 -5.875 15.25 -7.175781 15.25 -8.84375 L 15.25 -18.28125 L 19.96875 -18.28125 L 19.96875 0 L 15.8125 0 L 15.4375 -3.09375 C 14.875 -2.007812 14.054688 -1.148438 12.984375 -0.515625 C 11.921875 0.117188 10.675781 0.4375 9.25 0.4375 Z M 9.25 0.4375 "/></g></g></g><g fill="#223d41" fill-opacity="1"><g transform="translate(177.325945, 218.629615)"><g><path d="M 2.390625 0 L 2.390625 -18.28125 L 6.59375 -18.28125 L 7.03125 -14.84375 C 7.695312 -16.019531 8.597656 -16.957031 9.734375 -17.65625 C 10.878906 -18.363281 12.226562 -18.71875 13.78125 -18.71875 L 13.78125 -13.75 L 12.453125 -13.75 C 11.421875 -13.75 10.5 -13.585938 9.6875 -13.265625 C 8.875 -12.941406 8.238281 -12.382812 7.78125 -11.59375 C 7.332031 -10.8125 7.109375 -9.722656 7.109375 -8.328125 L 7.109375 0 Z M 2.390625 0 "/></g></g></g><g fill="#223d41" fill-opacity="1"><g transform="translate(191.100957, 218.629615)"><g><path d="M 13.78125 0.4375 C 11.34375 0.4375 9.210938 -0.113281 7.390625 -1.21875 C 5.578125 -2.320312 4.164062 -3.863281 3.15625 -5.84375 C 2.15625 -7.820312 1.65625 -10.125 1.65625 -12.75 C 1.65625 -15.40625 2.175781 -17.742188 3.21875 -19.765625 C 4.269531 -21.796875 5.757812 -23.378906 7.6875 -24.515625 C 9.613281 -25.660156 11.898438 -26.234375 14.546875 -26.234375 C 17.566406 -26.234375 20.070312 -25.507812 22.0625 -24.0625 C 24.050781 -22.613281 25.34375 -20.609375 25.9375 -18.046875 L 20.671875 -18.046875 C 20.273438 -19.253906 19.5625 -20.195312 18.53125 -20.875 C 17.5 -21.550781 16.171875 -21.890625 14.546875 -21.890625 C 11.972656 -21.890625 9.984375 -21.070312 8.578125 -19.4375 C 7.179688 -17.800781 6.484375 -15.5625 6.484375 -12.71875 C 6.484375 -9.863281 7.175781 -7.65625 8.5625 -6.09375 C 9.945312 -4.539062 11.832031 -3.765625 14.21875 -3.765625 C 16.550781 -3.765625 18.3125 -4.394531 19.5 -5.65625 C 20.695312 -6.914062 21.421875 -8.578125 21.671875 -10.640625 L 15.140625 -10.640625 L 15.140625 -14.1875 L 26.421875 -14.1875 L 26.421875 0 L 22.0625 0 L 21.703125 -3.390625 C 20.867188 -2.160156 19.820312 -1.210938 18.5625 -0.546875 C 17.3125 0.109375 15.71875 0.4375 13.78125 0.4375 Z M 13.78125 0.4375 "/></g></g></g><g fill="#223d41" fill-opacity="1"><g transform="translate(218.761668, 218.629615)"><g><path d="M 2.390625 0 L 2.390625 -18.28125 L 6.59375 -18.28125 L 7.03125 -14.84375 C 7.695312 -16.019531 8.597656 -16.957031 9.734375 -17.65625 C 10.878906 -18.363281 12.226562 -18.71875 13.78125 -18.71875 L 13.78125 -13.75 L 12.453125 -13.75 C 11.421875 -13.75 10.5 -13.585938 9.6875 -13.265625 C 8.875 -12.941406 8.238281 -12.382812 7.78125 -11.59375 C 7.332031 -10.8125 7.109375 -9.722656 7.109375 -8.328125 L 7.109375 0 Z M 2.390625 0 "/></g></g></g><g fill="#223d41" fill-opacity="1"><g transform="translate(232.536681, 218.629615)"><g><path d="M 11.15625 0.4375 C 9.394531 0.4375 7.804688 0.0351562 6.390625 -0.765625 C 4.984375 -1.578125 3.867188 -2.703125 3.046875 -4.140625 C 2.222656 -5.578125 1.8125 -7.242188 1.8125 -9.140625 C 1.8125 -11.023438 2.226562 -12.6875 3.0625 -14.125 C 3.894531 -15.5625 5.015625 -16.6875 6.421875 -17.5 C 7.835938 -18.3125 9.429688 -18.71875 11.203125 -18.71875 C 12.941406 -18.71875 14.515625 -18.3125 15.921875 -17.5 C 17.335938 -16.6875 18.457031 -15.5625 19.28125 -14.125 C 20.101562 -12.6875 20.515625 -11.023438 20.515625 -9.140625 C 20.515625 -7.242188 20.101562 -5.578125 19.28125 -4.140625 C 18.457031 -2.703125 17.332031 -1.578125 15.90625 -0.765625 C 14.488281 0.0351562 12.90625 0.4375 11.15625 0.4375 Z M 11.15625 -3.640625 C 12.382812 -3.640625 13.453125 -4.097656 14.359375 -5.015625 C 15.273438 -5.941406 15.734375 -7.316406 15.734375 -9.140625 C 15.734375 -10.953125 15.273438 -12.316406 14.359375 -13.234375 C 13.453125 -14.160156 12.398438 -14.625 11.203125 -14.625 C 9.953125 -14.625 8.875 -14.160156 7.96875 -13.234375 C 7.070312 -12.316406 6.625 -10.953125 6.625 -9.140625 C 6.625 -7.316406 7.070312 -5.941406 7.96875 -5.015625 C 8.875 -4.097656 9.9375 -3.640625 11.15625 -3.640625 Z M 11.15625 -3.640625 "/></g></g></g><g fill="#223d41" fill-opacity="1"><g transform="translate(254.046433, 218.629615)"><g><path d="M 5.96875 0 L 0.625 -18.28125 L 5.3125 -18.28125 L 8.46875 -5.125 L 12.15625 -18.28125 L 17.390625 -18.28125 L 21.078125 -5.125 L 24.28125 -18.28125 L 28.953125 -18.28125 L 23.578125 0 L 18.6875 0 L 14.78125 -13.671875 L 10.875 0 Z M 5.96875 0 "/></g></g></g><g fill="#223d41" fill-opacity="1"><g transform="translate(282.775267, 218.629615)"><g><path d="M 10.53125 0 C 8.613281 0 7.078125 -0.460938 5.921875 -1.390625 C 4.773438 -2.328125 4.203125 -3.988281 4.203125 -6.375 L 4.203125 -14.328125 L 1.0625 -14.328125 L 1.0625 -18.28125 L 4.203125 -18.28125 L 4.75 -23.171875 L 8.921875 -23.171875 L 8.921875 -18.28125 L 13.859375 -18.28125 L 13.859375 -14.328125 L 8.921875 -14.328125 L 8.921875 -6.34375 C 8.921875 -5.457031 9.109375 -4.847656 9.484375 -4.515625 C 9.867188 -4.179688 10.523438 -4.015625 11.453125 -4.015625 L 13.75 -4.015625 L 13.75 0 Z M 10.53125 0 "/></g></g></g><g fill="#223d41" fill-opacity="1"><g transform="translate(297.471082, 218.629615)"><g><path d="M 2.390625 0 L 2.390625 -26.53125 L 7.109375 -26.53125 L 7.109375 -15.46875 C 7.722656 -16.476562 8.550781 -17.269531 9.59375 -17.84375 C 10.632812 -18.425781 11.832031 -18.71875 13.1875 -18.71875 C 15.445312 -18.71875 17.195312 -18.003906 18.4375 -16.578125 C 19.675781 -15.148438 20.296875 -13.0625 20.296875 -10.3125 L 20.296875 0 L 15.625 0 L 15.625 -9.875 C 15.625 -11.445312 15.3125 -12.648438 14.6875 -13.484375 C 14.0625 -14.316406 13.070312 -14.734375 11.71875 -14.734375 C 10.394531 -14.734375 9.296875 -14.265625 8.421875 -13.328125 C 7.546875 -12.398438 7.109375 -11.101562 7.109375 -9.4375 L 7.109375 0 Z M 2.390625 0 "/></g></g></g><path stroke-linecap="butt" transform="matrix(0.75, 0, 0, 0.75, 127.499996, 185.999988)" fill="none" stroke-linejoin="miter" d="M 0.00000516333 2.000016 L 160.000016 2.000016 " stroke="#000000" stroke-width="4" stroke-opacity="1" stroke-miterlimit="4"/><g clip-path="url(#9d31bb6a4c)"><path fill="#000000" d="M 174.03125 176.742188 L 143.042969 145.753906 L 122.867188 165.929688 L 116.886719 159.949219 L 143.042969 133.792969 L 174.03125 164.785156 L 194.675781 144.144531 L 209.757812 159.226562 L 253.390625 115.59375 L 259.371094 121.574219 L 209.757812 171.1875 L 194.675781 156.101562 Z M 174.03125 176.742188 " fill-opacity="1" fill-rule="nonzero"/></g><g clip-path="url(#b8437b7958)"><path fill="#000000" d="M 266.824219 108.136719 L 262.070312 133.496094 L 241.464844 112.890625 Z M 266.824219 108.136719 " fill-opacity="1" fill-rule="nonzero"/></g><g fill="#96a6a6" fill-opacity="1"><g transform="translate(99.496068, 237.849227)"><g><path d="M 0.75 0 L 0.75 -7.671875 L 3.578125 -7.671875 C 4.191406 -7.671875 4.695312 -7.566406 5.09375 -7.359375 C 5.5 -7.148438 5.800781 -6.867188 6 -6.515625 C 6.195312 -6.160156 6.296875 -5.757812 6.296875 -5.3125 C 6.296875 -4.882812 6.203125 -4.492188 6.015625 -4.140625 C 5.828125 -3.785156 5.53125 -3.5 5.125 -3.28125 C 4.726562 -3.070312 4.210938 -2.96875 3.578125 -2.96875 L 2.140625 -2.96875 L 2.140625 0 Z M 2.140625 -4.109375 L 3.5 -4.109375 C 3.988281 -4.109375 4.335938 -4.210938 4.546875 -4.421875 C 4.765625 -4.640625 4.875 -4.9375 4.875 -5.3125 C 4.875 -5.6875 4.765625 -5.984375 4.546875 -6.203125 C 4.335938 -6.421875 3.988281 -6.53125 3.5 -6.53125 L 2.140625 -6.53125 Z M 2.140625 -4.109375 "/></g></g></g><g fill="#96a6a6" fill-opacity="1"><g transform="translate(107.57214, 237.849227)"><g><path d="M 0.71875 0 L 0.71875 -7.890625 L 2.109375 -7.890625 L 2.109375 0 Z M 0.71875 0 "/></g></g></g><g fill="#96a6a6" fill-opacity="1"><g transform="translate(111.835167, 237.849227)"><g><path d="M 2.578125 0.125 C 2.117188 0.125 1.738281 0.0507812 1.4375 -0.09375 C 1.132812 -0.238281 0.910156 -0.4375 0.765625 -0.6875 C 0.617188 -0.9375 0.546875 -1.210938 0.546875 -1.515625 C 0.546875 -2.015625 0.742188 -2.421875 1.140625 -2.734375 C 1.535156 -3.046875 2.125 -3.203125 2.90625 -3.203125 L 4.296875 -3.203125 L 4.296875 -3.34375 C 4.296875 -3.71875 4.1875 -3.988281 3.96875 -4.15625 C 3.757812 -4.332031 3.5 -4.421875 3.1875 -4.421875 C 2.90625 -4.421875 2.65625 -4.351562 2.4375 -4.21875 C 2.226562 -4.082031 2.097656 -3.882812 2.046875 -3.625 L 0.671875 -3.625 C 0.710938 -4.019531 0.847656 -4.363281 1.078125 -4.65625 C 1.304688 -4.945312 1.601562 -5.171875 1.96875 -5.328125 C 2.332031 -5.484375 2.742188 -5.5625 3.203125 -5.5625 C 3.972656 -5.5625 4.582031 -5.367188 5.03125 -4.984375 C 5.476562 -4.597656 5.703125 -4.050781 5.703125 -3.34375 L 5.703125 0 L 4.5 0 L 4.375 -0.875 C 4.207031 -0.582031 3.976562 -0.34375 3.6875 -0.15625 C 3.40625 0.03125 3.035156 0.125 2.578125 0.125 Z M 2.90625 -0.96875 C 3.300781 -0.96875 3.609375 -1.097656 3.828125 -1.359375 C 4.054688 -1.617188 4.203125 -1.941406 4.265625 -2.328125 L 3.0625 -2.328125 C 2.695312 -2.328125 2.429688 -2.257812 2.265625 -2.125 C 2.109375 -1.988281 2.03125 -1.820312 2.03125 -1.625 C 2.03125 -1.414062 2.109375 -1.253906 2.265625 -1.140625 C 2.429688 -1.023438 2.644531 -0.96875 2.90625 -0.96875 Z M 2.90625 -0.96875 "/></g></g></g><g fill="#96a6a6" fill-opacity="1"><g transform="translate(119.582519, 237.849227)"><g><path d="M 0.71875 0 L 0.71875 -5.4375 L 1.953125 -5.4375 L 2.0625 -4.515625 C 2.226562 -4.835938 2.46875 -5.09375 2.78125 -5.28125 C 3.101562 -5.46875 3.476562 -5.5625 3.90625 -5.5625 C 4.582031 -5.5625 5.101562 -5.347656 5.46875 -4.921875 C 5.84375 -4.503906 6.03125 -3.882812 6.03125 -3.0625 L 6.03125 0 L 4.640625 0 L 4.640625 -2.9375 C 4.640625 -3.40625 4.539062 -3.757812 4.34375 -4 C 4.15625 -4.25 3.863281 -4.375 3.46875 -4.375 C 3.070312 -4.375 2.742188 -4.234375 2.484375 -3.953125 C 2.234375 -3.679688 2.109375 -3.296875 2.109375 -2.796875 L 2.109375 0 Z M 0.71875 0 "/></g></g></g><g fill="#96a6a6" fill-opacity="1"><g transform="translate(127.669543, 237.849227)"><g/></g></g><g fill="#96a6a6" fill-opacity="1"><g transform="translate(131.702475, 237.849227)"><g><path d="M 0.75 0 L 0.75 -7.671875 L 3.828125 -7.671875 C 4.617188 -7.671875 5.222656 -7.484375 5.640625 -7.109375 C 6.066406 -6.742188 6.28125 -6.273438 6.28125 -5.703125 C 6.28125 -5.210938 6.148438 -4.820312 5.890625 -4.53125 C 5.628906 -4.25 5.3125 -4.054688 4.9375 -3.953125 C 5.375 -3.867188 5.734375 -3.648438 6.015625 -3.296875 C 6.304688 -2.953125 6.453125 -2.550781 6.453125 -2.09375 C 6.453125 -1.488281 6.234375 -0.988281 5.796875 -0.59375 C 5.359375 -0.195312 4.738281 0 3.9375 0 Z M 2.140625 -4.453125 L 3.609375 -4.453125 C 4.003906 -4.453125 4.304688 -4.539062 4.515625 -4.71875 C 4.734375 -4.90625 4.84375 -5.164062 4.84375 -5.5 C 4.84375 -5.820312 4.738281 -6.070312 4.53125 -6.25 C 4.320312 -6.4375 4.007812 -6.53125 3.59375 -6.53125 L 2.140625 -6.53125 Z M 2.140625 -1.140625 L 3.71875 -1.140625 C 4.132812 -1.140625 4.457031 -1.234375 4.6875 -1.421875 C 4.914062 -1.617188 5.03125 -1.894531 5.03125 -2.25 C 5.03125 -2.601562 4.90625 -2.878906 4.65625 -3.078125 C 4.414062 -3.285156 4.09375 -3.390625 3.6875 -3.390625 L 2.140625 -3.390625 Z M 2.140625 -1.140625 "/></g></g></g><g fill="#96a6a6" fill-opacity="1"><g transform="translate(140.04151, 237.849227)"><g><path d="M 3.359375 0.125 C 2.804688 0.125 2.316406 0.0078125 1.890625 -0.21875 C 1.472656 -0.445312 1.140625 -0.773438 0.890625 -1.203125 C 0.648438 -1.628906 0.53125 -2.117188 0.53125 -2.671875 C 0.53125 -3.234375 0.648438 -3.734375 0.890625 -4.171875 C 1.128906 -4.609375 1.457031 -4.945312 1.875 -5.1875 C 2.300781 -5.4375 2.796875 -5.5625 3.359375 -5.5625 C 3.890625 -5.5625 4.359375 -5.441406 4.765625 -5.203125 C 5.179688 -4.972656 5.503906 -4.65625 5.734375 -4.25 C 5.960938 -3.84375 6.078125 -3.394531 6.078125 -2.90625 C 6.078125 -2.820312 6.070312 -2.734375 6.0625 -2.640625 C 6.0625 -2.554688 6.0625 -2.46875 6.0625 -2.375 L 1.921875 -2.375 C 1.953125 -1.945312 2.097656 -1.613281 2.359375 -1.375 C 2.628906 -1.132812 2.957031 -1.015625 3.34375 -1.015625 C 3.625 -1.015625 3.859375 -1.078125 4.046875 -1.203125 C 4.242188 -1.335938 4.390625 -1.503906 4.484375 -1.703125 L 5.921875 -1.703125 C 5.816406 -1.359375 5.644531 -1.046875 5.40625 -0.765625 C 5.164062 -0.484375 4.875 -0.265625 4.53125 -0.109375 C 4.1875 0.046875 3.796875 0.125 3.359375 0.125 Z M 3.359375 -4.421875 C 3.015625 -4.421875 2.710938 -4.320312 2.453125 -4.125 C 2.191406 -3.9375 2.023438 -3.644531 1.953125 -3.25 L 4.65625 -3.25 C 4.632812 -3.613281 4.503906 -3.898438 4.265625 -4.109375 C 4.023438 -4.316406 3.722656 -4.421875 3.359375 -4.421875 Z M 3.359375 -4.421875 "/></g></g></g><g fill="#96a6a6" fill-opacity="1"><g transform="translate(148.018968, 237.849227)"><g><path d="M 3.125 0 C 2.5625 0 2.109375 -0.132812 1.765625 -0.40625 C 1.421875 -0.6875 1.25 -1.179688 1.25 -1.890625 L 1.25 -4.265625 L 0.3125 -4.265625 L 0.3125 -5.4375 L 1.25 -5.4375 L 1.40625 -6.890625 L 2.65625 -6.890625 L 2.65625 -5.4375 L 4.125 -5.4375 L 4.125 -4.265625 L 2.65625 -4.265625 L 2.65625 -1.890625 C 2.65625 -1.617188 2.707031 -1.429688 2.8125 -1.328125 C 2.925781 -1.234375 3.125 -1.1875 3.40625 -1.1875 L 4.078125 -1.1875 L 4.078125 0 Z M 3.125 0 "/></g></g></g><g fill="#96a6a6" fill-opacity="1"><g transform="translate(154.057031, 237.849227)"><g><path d="M 3.125 0 C 2.5625 0 2.109375 -0.132812 1.765625 -0.40625 C 1.421875 -0.6875 1.25 -1.179688 1.25 -1.890625 L 1.25 -4.265625 L 0.3125 -4.265625 L 0.3125 -5.4375 L 1.25 -5.4375 L 1.40625 -6.890625 L 2.65625 -6.890625 L 2.65625 -5.4375 L 4.125 -5.4375 L 4.125 -4.265625 L 2.65625 -4.265625 L 2.65625 -1.890625 C 2.65625 -1.617188 2.707031 -1.429688 2.8125 -1.328125 C 2.925781 -1.234375 3.125 -1.1875 3.40625 -1.1875 L 4.078125 -1.1875 L 4.078125 0 Z M 3.125 0 "/></g></g></g><g fill="#96a6a6" fill-opacity="1"><g transform="translate(160.095093, 237.849227)"><g><path d="M 3.359375 0.125 C 2.804688 0.125 2.316406 0.0078125 1.890625 -0.21875 C 1.472656 -0.445312 1.140625 -0.773438 0.890625 -1.203125 C 0.648438 -1.628906 0.53125 -2.117188 0.53125 -2.671875 C 0.53125 -3.234375 0.648438 -3.734375 0.890625 -4.171875 C 1.128906 -4.609375 1.457031 -4.945312 1.875 -5.1875 C 2.300781 -5.4375 2.796875 -5.5625 3.359375 -5.5625 C 3.890625 -5.5625 4.359375 -5.441406 4.765625 -5.203125 C 5.179688 -4.972656 5.503906 -4.65625 5.734375 -4.25 C 5.960938 -3.84375 6.078125 -3.394531 6.078125 -2.90625 C 6.078125 -2.820312 6.070312 -2.734375 6.0625 -2.640625 C 6.0625 -2.554688 6.0625 -2.46875 6.0625 -2.375 L 1.921875 -2.375 C 1.953125 -1.945312 2.097656 -1.613281 2.359375 -1.375 C 2.628906 -1.132812 2.957031 -1.015625 3.34375 -1.015625 C 3.625 -1.015625 3.859375 -1.078125 4.046875 -1.203125 C 4.242188 -1.335938 4.390625 -1.503906 4.484375 -1.703125 L 5.921875 -1.703125 C 5.816406 -1.359375 5.644531 -1.046875 5.40625 -0.765625 C 5.164062 -0.484375 4.875 -0.265625 4.53125 -0.109375 C 4.1875 0.046875 3.796875 0.125 3.359375 0.125 Z M 3.359375 -4.421875 C 3.015625 -4.421875 2.710938 -4.320312 2.453125 -4.125 C 2.191406 -3.9375 2.023438 -3.644531 1.953125 -3.25 L 4.65625 -3.25 C 4.632812 -3.613281 4.503906 -3.898438 4.265625 -4.109375 C 4.023438 -4.316406 3.722656 -4.421875 3.359375 -4.421875 Z M 3.359375 -4.421875 "/></g></g></g><g fill="#96a6a6" fill-opacity="1"><g transform="translate(168.072552, 237.849227)"><g><path d="M 0.71875 0 L 0.71875 -5.4375 L 1.953125 -5.4375 L 2.09375 -4.421875 C 2.289062 -4.765625 2.554688 -5.039062 2.890625 -5.25 C 3.234375 -5.457031 3.632812 -5.5625 4.09375 -5.5625 L 4.09375 -4.078125 L 3.703125 -4.078125 C 3.390625 -4.078125 3.113281 -4.03125 2.875 -3.9375 C 2.632812 -3.84375 2.445312 -3.675781 2.3125 -3.4375 C 2.175781 -3.207031 2.109375 -2.882812 2.109375 -2.46875 L 2.109375 0 Z M 0.71875 0 "/></g></g></g><g fill="#96a6a6" fill-opacity="1"><g transform="translate(173.836689, 237.849227)"><g><path d="M 1.3125 0.078125 C 1.0625 0.078125 0.851562 0 0.6875 -0.15625 C 0.519531 -0.320312 0.4375 -0.519531 0.4375 -0.75 C 0.4375 -0.976562 0.519531 -1.171875 0.6875 -1.328125 C 0.851562 -1.492188 1.0625 -1.578125 1.3125 -1.578125 C 1.570312 -1.578125 1.78125 -1.492188 1.9375 -1.328125 C 2.101562 -1.171875 2.1875 -0.976562 2.1875 -0.75 C 2.1875 -0.519531 2.101562 -0.320312 1.9375 -0.15625 C 1.78125 0 1.570312 0.078125 1.3125 0.078125 Z M 1.3125 0.078125 "/></g></g></g><g fill="#96a6a6" fill-opacity="1"><g transform="translate(177.891536, 237.849227)"><g/></g></g><g fill="#96a6a6" fill-opacity="1"><g transform="translate(181.924468, 237.849227)"><g><path d="M 4.09375 0.125 C 3.375 0.125 2.742188 -0.0351562 2.203125 -0.359375 C 1.660156 -0.691406 1.238281 -1.148438 0.9375 -1.734375 C 0.644531 -2.328125 0.5 -3.015625 0.5 -3.796875 C 0.5 -4.578125 0.648438 -5.269531 0.953125 -5.875 C 1.265625 -6.476562 1.707031 -6.945312 2.28125 -7.28125 C 2.851562 -7.625 3.535156 -7.796875 4.328125 -7.796875 C 5.222656 -7.796875 5.96875 -7.578125 6.5625 -7.140625 C 7.15625 -6.710938 7.539062 -6.117188 7.71875 -5.359375 L 6.140625 -5.359375 C 6.023438 -5.722656 5.8125 -6.003906 5.5 -6.203125 C 5.195312 -6.398438 4.804688 -6.5 4.328125 -6.5 C 3.554688 -6.5 2.960938 -6.253906 2.546875 -5.765625 C 2.128906 -5.285156 1.921875 -4.625 1.921875 -3.78125 C 1.921875 -2.9375 2.128906 -2.28125 2.546875 -1.8125 C 2.960938 -1.351562 3.523438 -1.125 4.234375 -1.125 C 4.921875 -1.125 5.441406 -1.3125 5.796875 -1.6875 C 6.148438 -2.0625 6.363281 -2.554688 6.4375 -3.171875 L 4.5 -3.171875 L 4.5 -4.21875 L 7.859375 -4.21875 L 7.859375 0 L 6.5625 0 L 6.453125 -1 C 6.203125 -0.632812 5.890625 -0.351562 5.515625 -0.15625 C 5.148438 0.03125 4.675781 0.125 4.09375 0.125 Z M 4.09375 0.125 "/></g></g></g><g fill="#96a6a6" fill-opacity="1"><g transform="translate(191.819395, 237.849227)"><g><path d="M 0.71875 0 L 0.71875 -5.4375 L 1.953125 -5.4375 L 2.09375 -4.421875 C 2.289062 -4.765625 2.554688 -5.039062 2.890625 -5.25 C 3.234375 -5.457031 3.632812 -5.5625 4.09375 -5.5625 L 4.09375 -4.078125 L 3.703125 -4.078125 C 3.390625 -4.078125 3.113281 -4.03125 2.875 -3.9375 C 2.632812 -3.84375 2.445312 -3.675781 2.3125 -3.4375 C 2.175781 -3.207031 2.109375 -2.882812 2.109375 -2.46875 L 2.109375 0 Z M 0.71875 0 "/></g></g></g><g fill="#96a6a6" fill-opacity="1"><g transform="translate(197.583532, 237.849227)"><g><path d="M 3.3125 0.125 C 2.789062 0.125 2.316406 0.00390625 1.890625 -0.234375 C 1.472656 -0.472656 1.140625 -0.804688 0.890625 -1.234375 C 0.648438 -1.660156 0.53125 -2.15625 0.53125 -2.71875 C 0.53125 -3.28125 0.65625 -3.773438 0.90625 -4.203125 C 1.15625 -4.628906 1.488281 -4.960938 1.90625 -5.203125 C 2.332031 -5.441406 2.804688 -5.5625 3.328125 -5.5625 C 3.847656 -5.5625 4.316406 -5.441406 4.734375 -5.203125 C 5.148438 -4.960938 5.476562 -4.628906 5.71875 -4.203125 C 5.96875 -3.773438 6.09375 -3.28125 6.09375 -2.71875 C 6.09375 -2.15625 5.96875 -1.660156 5.71875 -1.234375 C 5.476562 -0.804688 5.144531 -0.472656 4.71875 -0.234375 C 4.300781 0.00390625 3.832031 0.125 3.3125 0.125 Z M 3.3125 -1.078125 C 3.675781 -1.078125 3.992188 -1.210938 4.265625 -1.484375 C 4.535156 -1.765625 4.671875 -2.175781 4.671875 -2.71875 C 4.671875 -3.257812 4.535156 -3.664062 4.265625 -3.9375 C 3.992188 -4.207031 3.679688 -4.34375 3.328125 -4.34375 C 2.953125 -4.34375 2.628906 -4.207031 2.359375 -3.9375 C 2.097656 -3.664062 1.96875 -3.257812 1.96875 -2.71875 C 1.96875 -2.175781 2.097656 -1.765625 2.359375 -1.484375 C 2.628906 -1.210938 2.945312 -1.078125 3.3125 -1.078125 Z M 3.3125 -1.078125 "/></g></g></g><g fill="#96a6a6" fill-opacity="1"><g transform="translate(205.648641, 237.849227)"><g><path d="M 1.78125 0 L 0.1875 -5.4375 L 1.578125 -5.4375 L 2.515625 -1.515625 L 3.609375 -5.4375 L 5.171875 -5.4375 L 6.265625 -1.515625 L 7.21875 -5.4375 L 8.609375 -5.4375 L 7.015625 0 L 5.546875 0 L 4.390625 -4.0625 L 3.234375 0 Z M 1.78125 0 "/></g></g></g><g fill="#96a6a6" fill-opacity="1"><g transform="translate(215.861325, 237.849227)"><g/></g></g><g fill="#96a6a6" fill-opacity="1"><g transform="translate(219.894257, 237.849227)"><g><path d="M 3.359375 0.125 C 2.796875 0.125 2.300781 0.03125 1.875 -0.15625 C 1.445312 -0.351562 1.109375 -0.628906 0.859375 -0.984375 C 0.609375 -1.347656 0.476562 -1.789062 0.46875 -2.3125 L 1.953125 -2.3125 C 1.960938 -1.957031 2.085938 -1.65625 2.328125 -1.40625 C 2.578125 -1.164062 2.921875 -1.046875 3.359375 -1.046875 C 3.722656 -1.046875 4.015625 -1.132812 4.234375 -1.3125 C 4.453125 -1.488281 4.5625 -1.726562 4.5625 -2.03125 C 4.5625 -2.34375 4.460938 -2.582031 4.265625 -2.75 C 4.078125 -2.925781 3.820312 -3.070312 3.5 -3.1875 C 3.175781 -3.300781 2.832031 -3.414062 2.46875 -3.53125 C 1.882812 -3.738281 1.4375 -4.003906 1.125 -4.328125 C 0.8125 -4.648438 0.65625 -5.078125 0.65625 -5.609375 C 0.644531 -6.054688 0.75 -6.441406 0.96875 -6.765625 C 1.195312 -7.097656 1.503906 -7.351562 1.890625 -7.53125 C 2.273438 -7.707031 2.722656 -7.796875 3.234375 -7.796875 C 3.742188 -7.796875 4.191406 -7.703125 4.578125 -7.515625 C 4.972656 -7.335938 5.28125 -7.082031 5.5 -6.75 C 5.726562 -6.425781 5.847656 -6.039062 5.859375 -5.59375 L 4.359375 -5.59375 C 4.347656 -5.851562 4.242188 -6.085938 4.046875 -6.296875 C 3.847656 -6.503906 3.566406 -6.609375 3.203125 -6.609375 C 2.898438 -6.617188 2.644531 -6.546875 2.4375 -6.390625 C 2.226562 -6.234375 2.125 -6.003906 2.125 -5.703125 C 2.125 -5.453125 2.203125 -5.25 2.359375 -5.09375 C 2.523438 -4.945312 2.742188 -4.820312 3.015625 -4.71875 C 3.296875 -4.613281 3.613281 -4.503906 3.96875 -4.390625 C 4.351562 -4.253906 4.703125 -4.097656 5.015625 -3.921875 C 5.328125 -3.753906 5.578125 -3.523438 5.765625 -3.234375 C 5.960938 -2.941406 6.0625 -2.570312 6.0625 -2.125 C 6.0625 -1.71875 5.957031 -1.34375 5.75 -1 C 5.539062 -0.664062 5.234375 -0.394531 4.828125 -0.1875 C 4.429688 0.0195312 3.941406 0.125 3.359375 0.125 Z M 3.359375 0.125 "/></g></g></g><g fill="#96a6a6" fill-opacity="1"><g transform="translate(227.860752, 237.849227)"><g><path d="M 0.71875 0 L 0.71875 -5.4375 L 1.953125 -5.4375 L 2.0625 -4.703125 C 2.238281 -4.960938 2.472656 -5.171875 2.765625 -5.328125 C 3.054688 -5.484375 3.390625 -5.5625 3.765625 -5.5625 C 4.609375 -5.5625 5.203125 -5.238281 5.546875 -4.59375 C 5.742188 -4.882812 6.007812 -5.117188 6.34375 -5.296875 C 6.675781 -5.472656 7.039062 -5.5625 7.4375 -5.5625 C 8.144531 -5.5625 8.6875 -5.347656 9.0625 -4.921875 C 9.445312 -4.503906 9.640625 -3.882812 9.640625 -3.0625 L 9.640625 0 L 8.234375 0 L 8.234375 -2.9375 C 8.234375 -3.40625 8.144531 -3.757812 7.96875 -4 C 7.789062 -4.25 7.515625 -4.375 7.140625 -4.375 C 6.765625 -4.375 6.457031 -4.234375 6.21875 -3.953125 C 5.988281 -3.679688 5.875 -3.296875 5.875 -2.796875 L 5.875 0 L 4.484375 0 L 4.484375 -2.9375 C 4.484375 -3.40625 4.390625 -3.757812 4.203125 -4 C 4.023438 -4.25 3.742188 -4.375 3.359375 -4.375 C 2.984375 -4.375 2.679688 -4.234375 2.453125 -3.953125 C 2.222656 -3.679688 2.109375 -3.296875 2.109375 -2.796875 L 2.109375 0 Z M 0.71875 0 "/></g></g></g><g fill="#96a6a6" fill-opacity="1"><g transform="translate(239.55263, 237.849227)"><g><path d="M 2.578125 0.125 C 2.117188 0.125 1.738281 0.0507812 1.4375 -0.09375 C 1.132812 -0.238281 0.910156 -0.4375 0.765625 -0.6875 C 0.617188 -0.9375 0.546875 -1.210938 0.546875 -1.515625 C 0.546875 -2.015625 0.742188 -2.421875 1.140625 -2.734375 C 1.535156 -3.046875 2.125 -3.203125 2.90625 -3.203125 L 4.296875 -3.203125 L 4.296875 -3.34375 C 4.296875 -3.71875 4.1875 -3.988281 3.96875 -4.15625 C 3.757812 -4.332031 3.5 -4.421875 3.1875 -4.421875 C 2.90625 -4.421875 2.65625 -4.351562 2.4375 -4.21875 C 2.226562 -4.082031 2.097656 -3.882812 2.046875 -3.625 L 0.671875 -3.625 C 0.710938 -4.019531 0.847656 -4.363281 1.078125 -4.65625 C 1.304688 -4.945312 1.601562 -5.171875 1.96875 -5.328125 C 2.332031 -5.484375 2.742188 -5.5625 3.203125 -5.5625 C 3.972656 -5.5625 4.582031 -5.367188 5.03125 -4.984375 C 5.476562 -4.597656 5.703125 -4.050781 5.703125 -3.34375 L 5.703125 0 L 4.5 0 L 4.375 -0.875 C 4.207031 -0.582031 3.976562 -0.34375 3.6875 -0.15625 C 3.40625 0.03125 3.035156 0.125 2.578125 0.125 Z M 2.90625 -0.96875 C 3.300781 -0.96875 3.609375 -1.097656 3.828125 -1.359375 C 4.054688 -1.617188 4.203125 -1.941406 4.265625 -2.328125 L 3.0625 -2.328125 C 2.695312 -2.328125 2.429688 -2.257812 2.265625 -2.125 C 2.109375 -1.988281 2.03125 -1.820312 2.03125 -1.625 C 2.03125 -1.414062 2.109375 -1.253906 2.265625 -1.140625 C 2.429688 -1.023438 2.644531 -0.96875 2.90625 -0.96875 Z M 2.90625 -0.96875 "/></g></g></g><g fill="#96a6a6" fill-opacity="1"><g transform="translate(247.299983, 237.849227)"><g><path d="M 0.71875 0 L 0.71875 -5.4375 L 1.953125 -5.4375 L 2.09375 -4.421875 C 2.289062 -4.765625 2.554688 -5.039062 2.890625 -5.25 C 3.234375 -5.457031 3.632812 -5.5625 4.09375 -5.5625 L 4.09375 -4.078125 L 3.703125 -4.078125 C 3.390625 -4.078125 3.113281 -4.03125 2.875 -3.9375 C 2.632812 -3.84375 2.445312 -3.675781 2.3125 -3.4375 C 2.175781 -3.207031 2.109375 -2.882812 2.109375 -2.46875 L 2.109375 0 Z M 0.71875 0 "/></g></g></g><g fill="#96a6a6" fill-opacity="1"><g transform="translate(253.064119, 237.849227)"><g><path d="M 3.125 0 C 2.5625 0 2.109375 -0.132812 1.765625 -0.40625 C 1.421875 -0.6875 1.25 -1.179688 1.25 -1.890625 L 1.25 -4.265625 L 0.3125 -4.265625 L 0.3125 -5.4375 L 1.25 -5.4375 L 1.40625 -6.890625 L 2.65625 -6.890625 L 2.65625 -5.4375 L 4.125 -5.4375 L 4.125 -4.265625 L 2.65625 -4.265625 L 2.65625 -1.890625 C 2.65625 -1.617188 2.707031 -1.429688 2.8125 -1.328125 C 2.925781 -1.234375 3.125 -1.1875 3.40625 -1.1875 L 4.078125 -1.1875 L 4.078125 0 Z M 3.125 0 "/></g></g></g><g fill="#96a6a6" fill-opacity="1"><g transform="translate(259.102182, 237.849227)"><g><path d="M 3.359375 0.125 C 2.804688 0.125 2.316406 0.0078125 1.890625 -0.21875 C 1.472656 -0.445312 1.140625 -0.773438 0.890625 -1.203125 C 0.648438 -1.628906 0.53125 -2.117188 0.53125 -2.671875 C 0.53125 -3.234375 0.648438 -3.734375 0.890625 -4.171875 C 1.128906 -4.609375 1.457031 -4.945312 1.875 -5.1875 C 2.300781 -5.4375 2.796875 -5.5625 3.359375 -5.5625 C 3.890625 -5.5625 4.359375 -5.441406 4.765625 -5.203125 C 5.179688 -4.972656 5.503906 -4.65625 5.734375 -4.25 C 5.960938 -3.84375 6.078125 -3.394531 6.078125 -2.90625 C 6.078125 -2.820312 6.070312 -2.734375 6.0625 -2.640625 C 6.0625 -2.554688 6.0625 -2.46875 6.0625 -2.375 L 1.921875 -2.375 C 1.953125 -1.945312 2.097656 -1.613281 2.359375 -1.375 C 2.628906 -1.132812 2.957031 -1.015625 3.34375 -1.015625 C 3.625 -1.015625 3.859375 -1.078125 4.046875 -1.203125 C 4.242188 -1.335938 4.390625 -1.503906 4.484375 -1.703125 L 5.921875 -1.703125 C 5.816406 -1.359375 5.644531 -1.046875 5.40625 -0.765625 C 5.164062 -0.484375 4.875 -0.265625 4.53125 -0.109375 C 4.1875 0.046875 3.796875 0.125 3.359375 0.125 Z M 3.359375 -4.421875 C 3.015625 -4.421875 2.710938 -4.320312 2.453125 -4.125 C 2.191406 -3.9375 2.023438 -3.644531 1.953125 -3.25 L 4.65625 -3.25 C 4.632812 -3.613281 4.503906 -3.898438 4.265625 -4.109375 C 4.023438 -4.316406 3.722656 -4.421875 3.359375 -4.421875 Z M 3.359375 -4.421875 "/></g></g></g><g fill="#96a6a6" fill-opacity="1"><g transform="translate(267.07964, 237.849227)"><g><path d="M 0.71875 0 L 0.71875 -5.4375 L 1.953125 -5.4375 L 2.09375 -4.421875 C 2.289062 -4.765625 2.554688 -5.039062 2.890625 -5.25 C 3.234375 -5.457031 3.632812 -5.5625 4.09375 -5.5625 L 4.09375 -4.078125 L 3.703125 -4.078125 C 3.390625 -4.078125 3.113281 -4.03125 2.875 -3.9375 C 2.632812 -3.84375 2.445312 -3.675781 2.3125 -3.4375 C 2.175781 -3.207031 2.109375 -2.882812 2.109375 -2.46875 L 2.109375 0 Z M 0.71875 0 "/></g></g></g><g fill="#96a6a6" fill-opacity="1"><g transform="translate(272.843777, 237.849227)"><g><path d="M 1.3125 0.078125 C 1.0625 0.078125 0.851562 0 0.6875 -0.15625 C 0.519531 -0.320312 0.4375 -0.519531 0.4375 -0.75 C 0.4375 -0.976562 0.519531 -1.171875 0.6875 -1.328125 C 0.851562 -1.492188 1.0625 -1.578125 1.3125 -1.578125 C 1.570312 -1.578125 1.78125 -1.492188 1.9375 -1.328125 C 2.101562 -1.171875 2.1875 -0.976562 2.1875 -0.75 C 2.1875 -0.519531 2.101562 -0.320312 1.9375 -0.15625 C 1.78125 0 1.570312 0.078125 1.3125 0.078125 Z M 1.3125 0.078125 "/></g></g></g></svg>